<?xml version="1.0" encoding="UTF-8" standalone="no" ?>
<!DOCTYPE svg PUBLIC "-//W3C//DTD SVG 1.1//EN" "http://www.w3.org/Graphics/SVG/1.1/DTD/svg11.dtd">
<svg xmlns="http://www.w3.org/2000/svg" xmlns:xlink="http://www.w3.org/1999/xlink" version="1.1" width="500" height="500" viewBox="0 0 500 500" xml:space="preserve">
<desc>Created with Fabric.js 4.6.0</desc>
<defs>
</defs>
<g transform="matrix(1 0 0 1 250 250)" id="mGL8dOw75CplmoBlUp7Bz"  >
<path style="stroke: none; stroke-width: 1; stroke-dasharray: none; stroke-linecap: butt; stroke-dashoffset: 0; stroke-linejoin: miter; stroke-miterlimit: 4; fill: rgb(0,192,0); fill-rule: nonzero; opacity: 1;" vector-effect="non-scaling-stroke"  transform=" translate(-224, -256)" d="M 416 208 L 272 208 L 272 64 C 272 46.33 257.67 32 240 32 L 208 32 C 190.32999999999998 32 176 46.33 176 64 L 176 208 L 32 208 C 14.329999999999998 208 0 222.33 0 240 L 0 272 C 0 289.67 14.33 304 32 304 L 176 304 L 176 448 C 176 465.67 190.33 480 208 480 L 240 480 C 257.67 480 272 465.67 272 448 L 272 304 L 416 304 C 433.67 304 448 289.67 448 272 L 448 240 C 448 222.32999999999998 433.67 208 416 208 z" stroke-linecap="round" />
</g>
</svg>