<?xml version="1.0" encoding="UTF-8" standalone="no"?>
<!-- Generator: Adobe Illustrator 25.2.0, SVG Export Plug-In . SVG Version: 6.00 Build 0)  -->

<svg
   version="1.1"
   id="Layer_1"
   x="0px"
   y="0px"
   viewBox="0 0 712.84869 947.57513"
   xml:space="preserve"
   sodipodi:docname="slick-compact.svg"
   width="712.84869"
   height="947.57513"
   inkscape:version="1.1.1 (3bf5ae0d25, 2021-09-20)"
   xmlns:inkscape="http://www.inkscape.org/namespaces/inkscape"
   xmlns:sodipodi="http://sodipodi.sourceforge.net/DTD/sodipodi-0.dtd"
   xmlns="http://www.w3.org/2000/svg"
   xmlns:svg="http://www.w3.org/2000/svg"><defs
   id="defs53" /><sodipodi:namedview
   id="namedview51"
   pagecolor="#ffffff"
   bordercolor="#666666"
   borderopacity="1.0"
   inkscape:pageshadow="2"
   inkscape:pageopacity="0.0"
   inkscape:pagecheckerboard="0"
   showgrid="false"
   fit-margin-top="0"
   fit-margin-left="0"
   fit-margin-right="0"
   fit-margin-bottom="0"
   inkscape:zoom="0.74907407"
   inkscape:cx="-26.032138"
   inkscape:cy="473.25093"
   inkscape:window-width="1920"
   inkscape:window-height="1017"
   inkscape:window-x="-8"
   inkscape:window-y="-8"
   inkscape:window-maximized="1"
   inkscape:current-layer="Layer_1" />
<style
   type="text/css"
   id="style32">
	.st0{fill:#FFFFFF;}
</style>
<g
   id="g48"
   transform="translate(-182.99083,-66.503505)">
	<path
   d="m 669,950 c -1,0 -1,0 -3.4,3.3 -1.8,2.6 -5.3,8.3 -7.5,12.6 -3.2,6.3 -6,12.8 -8.8,19.3 -3.4,7.7 -6.7,15.5 -10,23.3 -0.2,0.5 -0.5,0.9 -0.8,1.3 -4.6,6 -10.1,5.8 -12.9,-1.3 -3.2,-7.7 -5.2,-15.9 -7.8,-23.8 -1.9,-5.9 -3.9,-11.7 -6,-17.5 -0.5,-1.4 -1.3,-2.6 -2.2,-3.8 -2.6,-3.7 -5,-4.6 -8.8,-2 -10.8,7.2 -22.2,13.8 -28,26.4 -2,4.3 -5.6,6.9 -10.4,7.9 -5.4,1.1 -8.3,0.1 -10.9,-4.9 -3.4,-6.6 -8.6,-11.1 -15.1,-14.2 -2,-0.9 -4.5,-1.5 -6.6,-1.1 -9,1.9 -15.5,6.8 -18.2,16.2 -1.4,5 -3.4,9.8 -5.5,14.6 -0.5,1.2 -2.5,2.6 -3.5,2.4 -1.5,-0.3 -3.2,-1.8 -3.7,-3.2 -0.9,-2.3 -1,-4.9 -1.2,-7.4 -0.7,-6.5 -4,-11.6 -7.7,-16.9 -4.1,-5.9 -7.9,-11.1 -16,-11.5 -3.5,-0.2 -6.9,-2.8 -10.4,-4.3 -4.6,-2.1 -7.6,-1.5 -10.4,2.5 -1.9,2.7 -3.3,5.8 -5,8.7 -1.3,2.3 -1.9,5.7 -5.3,5.3 -3.7,-0.4 -5.7,-3.4 -6.8,-6.7 -0.9,-2.5 -0.7,-5.4 -1.5,-8 -1.2,-3.6 -2.5,-7.3 -4.5,-10.5 -2,-3.2 -4.9,-3.3 -7.8,-0.7 -2.5,2.3 -4.7,5 -6.9,7.7 -3.2,4 -7.4,4.1 -9.7,-0.5 -1.9,-3.8 -2.9,-8 -3.8,-12.2 -0.9,-4.8 -3.6,-7.9 -7.7,-10.1 -2.4,-1.2 -4.5,-0.5 -6.2,1.5 -1.7,1.9 -3.1,3.9 -4.8,5.8 -5.1,5.6 -11.1,8.6 -18.8,5.8 -5.7,-2 -10.1,0.3 -13.7,4.5 -5.8,6.8 -10.1,14.4 -13.2,22.7 -0.8,2.1 -1.6,4.1 -2.6,6 -3.9,7.5 -10,8.1 -15.4,1.6 -5.2,-6.2 -8.1,-13.5 -9.7,-21.2 -1.5,-7.4 -2.3,-14.9 -3.1,-22.4 -1.3,-11.2 -5.6,-21 -14.2,-28.2 -7.9,-6.6 -15.9,-13.2 -24.6,-18.5 -15.6,-9.4 -27.1,-22 -34.8,-38.4 -12,-25.5 -24.4,-50.7 -32.7,-77.8 -7.5,-24.6 -11.6,-49.7 -11,-75.5 0.4,-19.3 3.4,-38.1 11.3,-55.8 12.9,-28.8 35.1,-45.6 65.7,-51.9 7.5,-1.5 15,-1.8 22.5,-0.3 13.2,2.6 22.8,10.3 29.5,21.8 7,11.9 10.8,25 14.7,38.1 5.2,17.8 9.9,35.8 17.7,52.8 9.7,21.3 23.7,38.9 44.7,50.2 14,7.5 29,11.6 44.7,13.5 29.6,3.6 59,0.8 88.1,-4.8 16.2,-3.1 32.3,-6.7 48.1,-11.1 8.1,-2.3 15.6,-6.6 23.2,-10.5 20.1,-10.4 38.8,-22.8 54.7,-39 12,-12.1 21.5,-25.8 27.1,-42 6.7,-19.6 6.3,-39.2 0.5,-58.9 -5.6,-18.8 -15.1,-35.5 -27.5,-50.6 -1.3,-1.6 -4.1,-3.9 -5.3,-3.4 -1.8,0.7 -3.4,3.3 -4,5.4 -1.4,5.1 -2.1,10.4 -3.3,15.6 -0.4,1.9 -1.1,3.9 -2.2,5.5 -2.1,3.1 -5.1,3 -7,-0.2 -0.8,-1.4 -1.4,-3.1 -1.6,-4.7 -0.5,-4.4 -0.6,-8.8 -1.3,-13.1 -0.3,-1.7 -1.7,-3.2 -2.8,-4.7 -1.5,-2 -3.5,-3.6 -4.9,-5.7 -1.3,-1.9 -2.8,-2.5 -4.8,-1.5 -2.8,1.4 -5.5,1.6 -8.5,0.8 -4.8,-1.2 -9.5,2.6 -10.5,8 -0.4,2.5 -0.8,5 -1.2,7.4 -0.2,1.1 -0.4,2.3 -0.9,3.3 -1,2.4 -2,5.6 -5.1,5.1 -3,-0.5 -3,-3.6 -3,-6.2 0,-0.6 0,-1.3 0,-1.9 -0.2,-5.4 -2.8,-8.6 -8.5,-5 -2,1.2 -3.6,0.9 -5.3,-0.8 -4.4,-4.7 -11.5,-5.5 -16.9,-2 -4.2,2.7 -7.5,6.4 -9.8,10.9 -0.5,0.9 -0.7,2 -1.4,2.8 -1.4,1.6 -2.9,4.2 -4.4,4.2 -1.8,-0.1 -3.6,-2.2 -5.1,-3.8 -1.3,-1.3 -2.1,-3.1 -3.4,-4.5 -3.3,-3.7 -7.4,-3.9 -10.6,-0.3 -2.6,3 -5.6,5 -9.1,6.9 -2.7,1.5 -4.9,4.6 -6.4,7.5 -2.4,4.4 -4.1,9.1 -6.1,13.7 -1.1,2.4 -1.9,4.9 -3.3,7.1 -3.2,4.9 -8.9,4.7 -11.6,-0.4 -1.5,-2.9 -2,-6.3 -3.4,-9.4 -2,-4.7 -4.1,-9.3 -6.6,-13.7 -2.4,-4.3 -5.3,-8.3 -8,-12.3 -1.1,-1.6 -2.1,-3.4 -3.6,-4.7 -1,-0.9 -2.7,-1.3 -4.2,-1.6 -2.6,-0.5 -5.4,-0.3 -7.9,-1.2 -2.9,-1.1 -5,-0.7 -7.1,1.5 -3.4,3.6 -6.9,7 -10.3,10.7 -3.9,4.2 -6,4.8 -11.4,3.1 -4.8,-1.6 -8.6,-4.6 -12.1,-8.2 -2.7,-2.7 -5.7,-5.4 -9,-7.2 -3.7,-2.1 -7.3,-1.2 -9.8,2.2 -2.6,3.7 -4.5,7.9 -6.6,12 -0.7,1.3 -0.9,2.8 -1.5,4.1 -2.4,4.9 -7.8,5.4 -10.8,0.9 -1.6,-2.5 -2.6,-5.4 -3.6,-8.3 -2.1,-6.3 -5.3,-11.7 -11.2,-15.4 -6.8,-4.3 -13.1,-4.3 -19.6,0.4 -1.5,1.1 -3.1,2.2 -4.7,3.2 -3.1,1.9 -6.2,1.8 -9.1,-0.3 -1.4,-1 -2.7,-2.1 -3.8,-3.3 -8.4,-9.5 -18.7,-16.4 -29.8,-22.3 -20.9,-11 -38.5,-26.3 -53.6,-44.4 -28.2,-33.7 -45,-72.7 -52.4,-115.7 -10.3,-59.7 6.2,-112.3 44,-158.8 25.6,-31.5 57.4,-55.6 92.5,-75.6 43.1,-24.6 89.3,-41.7 137.2,-54.3 24.9,-6.5 50,-12 75.6,-15.5 52.4,-7.1 104.1,-4.7 154.2,13.6 51.7,18.9 93.3,51.1 125.6,95.8 20.2,27.9 19,56.4 5.3,85.9 -5.3,11.3 -13.2,20.7 -22.3,29.1 -6.3,5.8 -11.6,12.4 -15.6,20 -1.9,3.6 -4.1,7.1 -6.6,10.3 -4.2,5.4 -9.7,6.2 -14.7,1.5 -3.9,-3.6 -7.2,-7.9 -10.2,-12.3 -4.7,-6.9 -8.6,-14.2 -13.4,-21 -2.9,-4 -6.4,-7.8 -10.3,-10.9 -4.5,-3.6 -7.7,-3 -12.1,0.9 -1.6,1.4 -3,2.9 -4.6,4.3 -2.7,2.2 -4.4,1.9 -6,-1.2 -0.8,-1.6 -1.2,-3.3 -1.7,-5.1 -3.1,-11.3 -11.4,-17.5 -21.5,-21.8 -1.7,-0.7 -4.6,0 -6.5,1 -6.3,3.2 -8.4,2.9 -13,-2.5 -1.1,-1.3 -2.2,-2.6 -3.1,-3.9 -3.1,-4.4 -7,-6.9 -12.5,-7.5 -6.3,-0.7 -11.3,-4.3 -15.6,-8.8 -0.9,-0.9 -1.7,-1.9 -2.6,-2.7 -3.6,-3.2 -6.5,-3.2 -9.9,0.1 -2,2 -3.9,4.2 -5.8,6.2 -3.7,3.9 -6.3,3.7 -8.7,-1.1 -1.9,-3.8 -3.1,-8 -4.8,-12 -2.2,-5.2 -5.8,-8.9 -11.6,-9.4 -1.8,-0.2 -4,0.7 -5.5,1.8 -1.3,0.9 -2,2.6 -2.7,4.2 -4.6,10.5 -6.6,21.5 -6,33.1 0.3,6.9 0,13.8 -0.3,20.7 -0.1,2.3 -0.3,5 -3.6,5.4 -3.1,0.3 -5.9,-1.4 -6.4,-4.8 -0.8,-5.1 -0.9,-10.4 -1.1,-15.6 -0.5,-11.7 -0.8,-23.5 -1.6,-35.2 -0.3,-5.1 -3.1,-9.5 -6.5,-13.3 -3,-3.4 -4.7,-3.3 -7.5,0.2 -1.7,2.2 -3.3,4.6 -6.6,4.9 -3.5,0.3 -6.4,-0.7 -8.5,-3.7 -1.5,-2.2 -3.5,-2.8 -5.7,-1.5 -3,1.7 -6,3.3 -8.6,5.6 -4.5,4 -7.4,4.6 -12.7,1.8 -0.6,-0.4 -1.3,-0.7 -1.9,-1.1 -6.8,-4.9 -10.9,-2.7 -15.2,2.6 -7.5,9.4 -12.4,20 -13.4,32.3 -0.4,5 -2.2,10 -3.9,14.7 -0.8,2.4 -2.7,4.9 -5.8,4.5 -3.1,-0.4 -4.8,-2.8 -5.5,-5.8 -1,-4.4 -1.6,-8.9 -2.9,-13.2 -1.3,-4.1 -2.8,-8.2 -4.9,-11.8 -3.7,-6.2 -8.4,-7.2 -14.3,-3 -7.9,5.6 -14.5,12.5 -18,21.8 -0.7,1.9 -1.4,3.8 -2.5,5.4 -2.1,3.3 -5.7,3.3 -7.9,0 -0.8,-1.2 -1.2,-2.7 -1.7,-4 -1.8,-4.9 -4.8,-6.6 -9.6,-4.2 -3.4,1.7 -6.7,4.1 -9.1,6.9 -13.4,15.6 -20,34.1 -21.5,54.5 -0.7,8.8 -1,17.6 -1.3,26.5 -0.3,14 5.7,24.7 17.4,32.3 10.2,6.7 21.8,9.8 33.7,11.7 22.6,3.7 45.2,2.8 67.9,0.9 20,-1.6 39.3,-6.7 59,-10.1 37.7,-6.6 75.6,-10.1 113.9,-7.7 38.3,2.5 75.3,10.4 109.6,28.3 33.9,17.6 61.6,42.1 79.6,76.2 10.4,19.8 19.4,40.3 26.8,61.4 10.2,29.4 17.7,59.4 21.2,90.3 5.2,46.8 1.4,92.5 -16.7,136.5 -7,16.9 -16.2,32.5 -26.5,47.5 -9.3,13.5 -17.5,27.8 -26.7,41.3 -6.6,9.6 -11.2,19.8 -13.7,31.1 -1.2,5.3 -1.5,10.8 -2.4,16.1 -1.2,7.5 -2.8,15 -4,22.5 -0.7,4.2 -0.9,8.5 -1.1,12.8 -0.5,10.6 -0.5,21.2 -1.4,31.7 -0.9,10.2 -4.2,19.8 -10.7,28 -8,9.9 -20.9,8.7 -26.2,-2.9 -5.8,-12.7 -10.1,-25.8 -11.7,-39.8 -0.6,-5.4 -2.2,-10.9 -4.3,-15.9 -3.1,-7.6 -6.7,-9.6 -14.6,-7.7 -8.1,1.9 -15.3,0.7 -22.4,-3.4 -1.5,-0.9 -3.2,-1.6 -4.9,-2.2 -2.6,-1 -4.9,-0.7 -6.8,1.5 -1,1.2 -2.2,2.3 -3.5,3.1 -9,6.1 -11,14.8 -9.3,24.8 1.1,6.1 0.4,12.1 -1.7,17.9 -0.3,0.9 -1.3,2.2 -1.8,2.1 -1.1,-0.1 -2.6,-0.7 -3,-1.6 -1.7,-3.4 -3.3,-7 -4.6,-10.6 C 674,959.4 673,953 669,950 Z M 469.3,822.7 c 0,0.3 0.1,0.6 0.1,0.9 14,-1.7 27.9,-3.2 41.9,-5 4.5,-0.6 8.9,-1.6 13.2,-2.8 3.7,-1.1 5.8,-4.3 5.6,-7.9 -0.2,-3.4 -2.6,-6.4 -6.2,-7 -1.7,-0.3 -3.6,-0.2 -5.3,0.2 -27.9,5.6 -56,8 -84.3,3.3 -43.7,-7.2 -78.2,-28.7 -102.2,-66.4 -3.3,-5.2 -5.8,-11 -8.7,-16.4 -2.1,-4 -6.2,-5.7 -10,-4.3 -3.9,1.5 -5.8,5.7 -4.5,10.2 0.5,1.6 1.2,3.2 1.9,4.7 16.6,34.1 42.3,59 76.7,74.8 26.1,11.8 53.5,16.2 81.8,15.7 z M 516.1,93.6 c -0.9,0.1 -2.2,0.3 -3.6,0.5 -41.7,8.3 -82.7,19.3 -122.4,34.5 -25.8,9.9 -50.7,21.5 -73.4,37.5 -5.2,3.7 -10.2,7.8 -15,12 -4.1,3.7 -4.2,9 -0.7,12.2 3.1,2.8 7.6,2.7 11.4,-0.7 16.2,-14.2 34.7,-24.8 54.1,-33.8 41,-19.1 84.1,-31.7 128,-41.7 8,-1.8 16.1,-3.3 24,-5.1 4.5,-1.1 6.9,-4.9 6.3,-8.9 -0.4,-3.9 -3.8,-6.6 -8.7,-6.5 z m 120.1,313.8 c 25.7,0.3 45.4,1.9 64.7,6.5 24.8,5.9 47.6,15.9 66,34.2 0.5,0.5 1.1,1 1.7,1.4 3.4,2.2 7.5,1.9 10.1,-0.8 2.6,-2.7 2.9,-6.8 0.6,-10.1 -0.7,-1 -1.6,-1.9 -2.5,-2.8 -13,-12.8 -28.3,-22.1 -45.2,-28.7 -39.7,-15.5 -81,-17.4 -122.9,-13.5 -3.2,0.3 -6.5,0.7 -9.7,1.4 -4.5,1 -7,4.7 -6.5,8.7 0.6,4.1 4,6.8 8.6,6.7 1.2,0 2.3,-0.2 3.5,-0.3 12.6,-1.2 25,-2.2 31.6,-2.7 z m 160.9,53.3 c -0.1,-4.1 -3.3,-7.3 -7.5,-7.3 -4.2,0 -7.3,3.2 -7.3,7.4 0,4.3 3.4,7.5 7.7,7.4 4.1,-0.1 7.2,-3.4 7.1,-7.5 z M 550.6,810.3 c 4.2,0 7.4,-3.2 7.4,-7.3 0,-4.2 -3.1,-7.4 -7.3,-7.5 -4.3,-0.1 -7.6,3.2 -7.6,7.5 0.1,4.1 3.3,7.3 7.5,7.3 z M 289.1,212.7 c 4.1,0.1 7.5,-3.1 7.6,-7.2 0.1,-4.2 -3,-7.5 -7.1,-7.7 -4.3,-0.2 -7.7,3.1 -7.7,7.4 -0.1,4.1 3.1,7.4 7.2,7.5 z"
   id="path34" />
	<path
   class="st0"
   d="M 469.3,822.7 C 441,823.2 413.6,818.8 387.7,807 353.3,791.2 327.6,766.3 311,732.2 c -0.7,-1.5 -1.4,-3.1 -1.9,-4.7 -1.4,-4.5 0.5,-8.6 4.5,-10.2 3.8,-1.5 7.9,0.2 10,4.3 2.9,5.5 5.4,11.2 8.7,16.4 23.9,37.7 58.4,59.2 102.2,66.4 28.3,4.7 56.4,2.3 84.3,-3.3 1.7,-0.3 3.6,-0.5 5.3,-0.2 3.5,0.6 6,3.6 6.2,7 0.2,3.6 -1.8,6.8 -5.6,7.9 -4.3,1.2 -8.8,2.2 -13.2,2.8 -13.9,1.8 -27.9,3.4 -41.9,5 -0.2,-0.4 -0.3,-0.7 -0.3,-0.9 z"
   id="path36" />
	<path
   class="st0"
   d="m 516.1,93.6 c 4.9,0 8.3,2.6 8.9,6.6 0.6,4 -1.8,7.8 -6.3,8.9 -8,1.9 -16.1,3.3 -24,5.1 -43.9,10 -87.1,22.6 -128,41.7 -19.4,9 -37.9,19.6 -54.1,33.8 -3.9,3.4 -8.3,3.5 -11.4,0.7 -3.5,-3.2 -3.5,-8.5 0.7,-12.2 4.8,-4.2 9.8,-8.3 15,-12 22.6,-16.1 47.6,-27.6 73.4,-37.5 39.7,-15.3 80.7,-26.2 122.4,-34.5 1.2,-0.4 2.6,-0.5 3.4,-0.6 z"
   id="path38" />
	<path
   class="st0"
   d="m 636.2,407.4 c -6.6,0.5 -19,1.5 -31.5,2.5 -1.2,0.1 -2.3,0.2 -3.5,0.3 -4.6,0.1 -8,-2.6 -8.6,-6.7 -0.6,-4.1 2,-7.7 6.5,-8.7 3.2,-0.7 6.4,-1.1 9.7,-1.4 41.9,-3.9 83.2,-2 122.9,13.5 16.9,6.6 32.2,15.9 45.2,28.7 0.9,0.9 1.8,1.8 2.5,2.8 2.3,3.3 2,7.5 -0.6,10.1 -2.6,2.7 -6.8,3 -10.1,0.8 -0.6,-0.4 -1.2,-0.9 -1.7,-1.4 -18.4,-18.3 -41.2,-28.2 -66,-34.2 -19.4,-4.4 -39.1,-6 -64.8,-6.3 z"
   id="path40" />
	<path
   class="st0"
   d="m 797.1,460.7 c 0.1,4.2 -3.1,7.5 -7.2,7.6 -4.3,0.1 -7.7,-3.1 -7.7,-7.4 0,-4.2 3.2,-7.4 7.3,-7.4 4.3,-0.1 7.6,3 7.6,7.2 z"
   id="path42" />
	<path
   class="st0"
   d="m 550.6,810.3 c -4.2,0 -7.4,-3.2 -7.4,-7.3 0,-4.3 3.3,-7.6 7.6,-7.5 4.1,0.1 7.3,3.3 7.3,7.5 -0.1,4.1 -3.3,7.3 -7.5,7.3 z"
   id="path44" />
	<path
   class="st0"
   d="m 289.1,212.7 c -4.1,-0.1 -7.3,-3.4 -7.3,-7.5 0,-4.3 3.5,-7.5 7.7,-7.4 4.1,0.2 7.2,3.5 7.1,7.7 0,4.1 -3.4,7.3 -7.5,7.2 z"
   id="path46" />
</g>
</svg>
