<?xml version="1.0" encoding="utf-8"?>
<!-- Generator: Adobe Illustrator 25.2.0, SVG Export Plug-In . SVG Version: 6.00 Build 0)  -->
<svg version="1.1" id="Layer_1" xmlns="http://www.w3.org/2000/svg" xmlns:xlink="http://www.w3.org/1999/xlink" x="0px" y="0px"
	 viewBox="0 0 1080 1080" style="enable-background:new 0 0 1080 1080;" xml:space="preserve">
<style type="text/css">
	.st0{fill:#FFFFFF;}
</style>
<g>
	<path d="M669,950c-1,0-1,0-3.4,3.3c-1.8,2.6-5.3,8.3-7.5,12.6c-3.2,6.3-6,12.8-8.8,19.3c-3.4,7.7-6.7,15.5-10,23.3
		c-0.2,0.5-0.5,0.9-0.8,1.3c-4.6,6-10.1,5.8-12.9-1.3c-3.2-7.7-5.2-15.9-7.8-23.8c-1.9-5.9-3.9-11.7-6-17.5
		c-0.5-1.4-1.3-2.6-2.2-3.8c-2.6-3.7-5-4.6-8.8-2c-10.8,7.2-22.2,13.8-28,26.4c-2,4.3-5.6,6.9-10.4,7.9c-5.4,1.1-8.3,0.1-10.9-4.9
		c-3.4-6.6-8.6-11.1-15.1-14.2c-2-0.9-4.5-1.5-6.6-1.1c-9,1.9-15.5,6.8-18.2,16.2c-1.4,5-3.4,9.8-5.5,14.6c-0.5,1.2-2.5,2.6-3.5,2.4
		c-1.5-0.3-3.2-1.8-3.7-3.2c-0.9-2.3-1-4.9-1.2-7.4c-0.7-6.5-4-11.6-7.7-16.9c-4.1-5.9-7.9-11.1-16-11.5c-3.5-0.2-6.9-2.8-10.4-4.3
		c-4.6-2.1-7.6-1.5-10.4,2.5c-1.9,2.7-3.3,5.8-5,8.7c-1.3,2.3-1.9,5.7-5.3,5.3c-3.7-0.4-5.7-3.4-6.8-6.7c-0.9-2.5-0.7-5.4-1.5-8
		c-1.2-3.6-2.5-7.3-4.5-10.5c-2-3.2-4.9-3.3-7.8-0.7c-2.5,2.3-4.7,5-6.9,7.7c-3.2,4-7.4,4.1-9.7-0.5c-1.9-3.8-2.9-8-3.8-12.2
		c-0.9-4.8-3.6-7.9-7.7-10.1c-2.4-1.2-4.5-0.5-6.2,1.5c-1.7,1.9-3.1,3.9-4.8,5.8c-5.1,5.6-11.1,8.6-18.8,5.8
		c-5.7-2-10.1,0.3-13.7,4.5c-5.8,6.8-10.1,14.4-13.2,22.7c-0.8,2.1-1.6,4.1-2.6,6c-3.9,7.5-10,8.1-15.4,1.6
		c-5.2-6.2-8.1-13.5-9.7-21.2c-1.5-7.4-2.3-14.9-3.1-22.4c-1.3-11.2-5.6-21-14.2-28.2c-7.9-6.6-15.9-13.2-24.6-18.5
		c-15.6-9.4-27.1-22-34.8-38.4c-12-25.5-24.4-50.7-32.7-77.8c-7.5-24.6-11.6-49.7-11-75.5c0.4-19.3,3.4-38.1,11.3-55.8
		c12.9-28.8,35.1-45.6,65.7-51.9c7.5-1.5,15-1.8,22.5-0.3c13.2,2.6,22.8,10.3,29.5,21.8c7,11.9,10.8,25,14.7,38.1
		c5.2,17.8,9.9,35.8,17.7,52.8c9.7,21.3,23.7,38.9,44.7,50.2c14,7.5,29,11.6,44.7,13.5c29.6,3.6,59,0.8,88.1-4.8
		c16.2-3.1,32.3-6.7,48.1-11.1c8.1-2.3,15.6-6.6,23.2-10.5c20.1-10.4,38.8-22.8,54.7-39c12-12.1,21.5-25.8,27.1-42
		c6.7-19.6,6.3-39.2,0.5-58.9c-5.6-18.8-15.1-35.5-27.5-50.6c-1.3-1.6-4.1-3.9-5.3-3.4c-1.8,0.7-3.4,3.3-4,5.4
		c-1.4,5.1-2.1,10.4-3.3,15.6c-0.4,1.9-1.1,3.9-2.2,5.5c-2.1,3.1-5.1,3-7-0.2c-0.8-1.4-1.4-3.1-1.6-4.7c-0.5-4.4-0.6-8.8-1.3-13.1
		c-0.3-1.7-1.7-3.2-2.8-4.7c-1.5-2-3.5-3.6-4.9-5.7c-1.3-1.9-2.8-2.5-4.8-1.5c-2.8,1.4-5.5,1.6-8.5,0.8c-4.8-1.2-9.5,2.6-10.5,8
		c-0.4,2.5-0.8,5-1.2,7.4c-0.2,1.1-0.4,2.3-0.9,3.3c-1,2.4-2,5.6-5.1,5.1c-3-0.5-3-3.6-3-6.2c0-0.6,0-1.3,0-1.9
		c-0.2-5.4-2.8-8.6-8.5-5c-2,1.2-3.6,0.9-5.3-0.8c-4.4-4.7-11.5-5.5-16.9-2c-4.2,2.7-7.5,6.4-9.8,10.9c-0.5,0.9-0.7,2-1.4,2.8
		c-1.4,1.6-2.9,4.2-4.4,4.2c-1.8-0.1-3.6-2.2-5.1-3.8c-1.3-1.3-2.1-3.1-3.4-4.5c-3.3-3.7-7.4-3.9-10.6-0.3c-2.6,3-5.6,5-9.1,6.9
		c-2.7,1.5-4.9,4.6-6.4,7.5c-2.4,4.4-4.1,9.1-6.1,13.7c-1.1,2.4-1.9,4.9-3.3,7.1c-3.2,4.9-8.9,4.7-11.6-0.4c-1.5-2.9-2-6.3-3.4-9.4
		c-2-4.7-4.1-9.3-6.6-13.7c-2.4-4.3-5.3-8.3-8-12.3c-1.1-1.6-2.1-3.4-3.6-4.7c-1-0.9-2.7-1.3-4.2-1.6c-2.6-0.5-5.4-0.3-7.9-1.2
		c-2.9-1.1-5-0.7-7.1,1.5c-3.4,3.6-6.9,7-10.3,10.7c-3.9,4.2-6,4.8-11.4,3.1c-4.8-1.6-8.6-4.6-12.1-8.2c-2.7-2.7-5.7-5.4-9-7.2
		c-3.7-2.1-7.3-1.2-9.8,2.2c-2.6,3.7-4.5,7.9-6.6,12c-0.7,1.3-0.9,2.8-1.5,4.1c-2.4,4.9-7.8,5.4-10.8,0.9c-1.6-2.5-2.6-5.4-3.6-8.3
		c-2.1-6.3-5.3-11.7-11.2-15.4c-6.8-4.3-13.1-4.3-19.6,0.4c-1.5,1.1-3.1,2.2-4.7,3.2c-3.1,1.9-6.2,1.8-9.1-0.3
		c-1.4-1-2.7-2.1-3.8-3.3c-8.4-9.5-18.7-16.4-29.8-22.3c-20.9-11-38.5-26.3-53.6-44.4c-28.2-33.7-45-72.7-52.4-115.7
		c-10.3-59.7,6.2-112.3,44-158.8c25.6-31.5,57.4-55.6,92.5-75.6c43.1-24.6,89.3-41.7,137.2-54.3c24.9-6.5,50-12,75.6-15.5
		c52.4-7.1,104.1-4.7,154.2,13.6c51.7,18.9,93.3,51.1,125.6,95.8c20.2,27.9,19,56.4,5.3,85.9c-5.3,11.3-13.2,20.7-22.3,29.1
		c-6.3,5.8-11.6,12.4-15.6,20c-1.9,3.6-4.1,7.1-6.6,10.3c-4.2,5.4-9.7,6.2-14.7,1.5c-3.9-3.6-7.2-7.9-10.2-12.3
		c-4.7-6.9-8.6-14.2-13.4-21c-2.9-4-6.4-7.8-10.3-10.9c-4.5-3.6-7.7-3-12.1,0.9c-1.6,1.4-3,2.9-4.6,4.3c-2.7,2.2-4.4,1.9-6-1.2
		c-0.8-1.6-1.2-3.3-1.7-5.1c-3.1-11.3-11.4-17.5-21.5-21.8c-1.7-0.7-4.6,0-6.5,1c-6.3,3.2-8.4,2.9-13-2.5c-1.1-1.3-2.2-2.6-3.1-3.9
		c-3.1-4.4-7-6.9-12.5-7.5c-6.3-0.7-11.3-4.3-15.6-8.8c-0.9-0.9-1.7-1.9-2.6-2.7c-3.6-3.2-6.5-3.2-9.9,0.1c-2,2-3.9,4.2-5.8,6.2
		c-3.7,3.9-6.3,3.7-8.7-1.1c-1.9-3.8-3.1-8-4.8-12c-2.2-5.2-5.8-8.9-11.6-9.4c-1.8-0.2-4,0.7-5.5,1.8c-1.3,0.9-2,2.6-2.7,4.2
		c-4.6,10.5-6.6,21.5-6,33.1c0.3,6.9,0,13.8-0.3,20.7c-0.1,2.3-0.3,5-3.6,5.4c-3.1,0.3-5.9-1.4-6.4-4.8c-0.8-5.1-0.9-10.4-1.1-15.6
		c-0.5-11.7-0.8-23.5-1.6-35.2c-0.3-5.1-3.1-9.5-6.5-13.3c-3-3.4-4.7-3.3-7.5,0.2c-1.7,2.2-3.3,4.6-6.6,4.9
		c-3.5,0.3-6.4-0.7-8.5-3.7c-1.5-2.2-3.5-2.8-5.7-1.5c-3,1.7-6,3.3-8.6,5.6c-4.5,4-7.4,4.6-12.7,1.8c-0.6-0.4-1.3-0.7-1.9-1.1
		c-6.8-4.9-10.9-2.7-15.2,2.6c-7.5,9.4-12.4,20-13.4,32.3c-0.4,5-2.2,10-3.9,14.7c-0.8,2.4-2.7,4.9-5.8,4.5
		c-3.1-0.4-4.8-2.8-5.5-5.8c-1-4.4-1.6-8.9-2.9-13.2c-1.3-4.1-2.8-8.2-4.9-11.8c-3.7-6.2-8.4-7.2-14.3-3c-7.9,5.6-14.5,12.5-18,21.8
		c-0.7,1.9-1.4,3.8-2.5,5.4c-2.1,3.3-5.7,3.3-7.9,0c-0.8-1.2-1.2-2.7-1.7-4c-1.8-4.9-4.8-6.6-9.6-4.2c-3.4,1.7-6.7,4.1-9.1,6.9
		c-13.4,15.6-20,34.1-21.5,54.5c-0.7,8.8-1,17.6-1.3,26.5c-0.3,14,5.7,24.7,17.4,32.3c10.2,6.7,21.8,9.8,33.7,11.7
		c22.6,3.7,45.2,2.8,67.9,0.9c20-1.6,39.3-6.7,59-10.1c37.7-6.6,75.6-10.1,113.9-7.7c38.3,2.5,75.3,10.4,109.6,28.3
		c33.9,17.6,61.6,42.1,79.6,76.2c10.4,19.8,19.4,40.3,26.8,61.4c10.2,29.4,17.7,59.4,21.2,90.3c5.2,46.8,1.4,92.5-16.7,136.5
		c-7,16.9-16.2,32.5-26.5,47.5c-9.3,13.5-17.5,27.8-26.7,41.3c-6.6,9.6-11.2,19.8-13.7,31.1c-1.2,5.3-1.5,10.8-2.4,16.1
		c-1.2,7.5-2.8,15-4,22.5c-0.7,4.2-0.9,8.5-1.1,12.8c-0.5,10.6-0.5,21.2-1.4,31.7c-0.9,10.2-4.2,19.8-10.7,28
		c-8,9.9-20.9,8.7-26.2-2.9c-5.8-12.7-10.1-25.8-11.7-39.8c-0.6-5.4-2.2-10.9-4.3-15.9c-3.1-7.6-6.7-9.6-14.6-7.7
		c-8.1,1.9-15.3,0.7-22.4-3.4c-1.5-0.9-3.2-1.6-4.9-2.2c-2.6-1-4.9-0.7-6.8,1.5c-1,1.2-2.2,2.3-3.5,3.1c-9,6.1-11,14.8-9.3,24.8
		c1.1,6.1,0.4,12.1-1.7,17.9c-0.3,0.9-1.3,2.2-1.8,2.1c-1.1-0.1-2.6-0.7-3-1.6c-1.7-3.4-3.3-7-4.6-10.6C674,959.4,673,953,669,950z
		 M469.3,822.7c0,0.3,0.1,0.6,0.1,0.9c14-1.7,27.9-3.2,41.9-5c4.5-0.6,8.9-1.6,13.2-2.8c3.7-1.1,5.8-4.3,5.6-7.9
		c-0.2-3.4-2.6-6.4-6.2-7c-1.7-0.3-3.6-0.2-5.3,0.2c-27.9,5.6-56,8-84.3,3.3c-43.7-7.2-78.2-28.7-102.2-66.4
		c-3.3-5.2-5.8-11-8.7-16.4c-2.1-4-6.2-5.7-10-4.3c-3.9,1.5-5.8,5.7-4.5,10.2c0.5,1.6,1.2,3.2,1.9,4.7c16.6,34.1,42.3,59,76.7,74.8
		C413.6,818.8,441,823.2,469.3,822.7z M516.1,93.6c-0.9,0.1-2.2,0.3-3.6,0.5c-41.7,8.3-82.7,19.3-122.4,34.5
		c-25.8,9.9-50.7,21.5-73.4,37.5c-5.2,3.7-10.2,7.8-15,12c-4.1,3.7-4.2,9-0.7,12.2c3.1,2.8,7.6,2.7,11.4-0.7
		c16.2-14.2,34.7-24.8,54.1-33.8c41-19.1,84.1-31.7,128-41.7c8-1.8,16.1-3.3,24-5.1c4.5-1.1,6.9-4.9,6.3-8.9
		C524.4,96.2,521,93.5,516.1,93.6z M636.2,407.4c25.7,0.3,45.4,1.9,64.7,6.5c24.8,5.9,47.6,15.9,66,34.2c0.5,0.5,1.1,1,1.7,1.4
		c3.4,2.2,7.5,1.9,10.1-0.8c2.6-2.7,2.9-6.8,0.6-10.1c-0.7-1-1.6-1.9-2.5-2.8c-13-12.8-28.3-22.1-45.2-28.7
		c-39.7-15.5-81-17.4-122.9-13.5c-3.2,0.3-6.5,0.7-9.7,1.4c-4.5,1-7,4.7-6.5,8.7c0.6,4.1,4,6.8,8.6,6.7c1.2,0,2.3-0.2,3.5-0.3
		C617.2,408.9,629.6,407.9,636.2,407.4z M797.1,460.7c-0.1-4.1-3.3-7.3-7.5-7.3c-4.2,0-7.3,3.2-7.3,7.4c0,4.3,3.4,7.5,7.7,7.4
		C794.1,468.1,797.2,464.8,797.1,460.7z M550.6,810.3c4.2,0,7.4-3.2,7.4-7.3c0-4.2-3.1-7.4-7.3-7.5c-4.3-0.1-7.6,3.2-7.6,7.5
		C543.2,807.1,546.4,810.3,550.6,810.3z M289.1,212.7c4.1,0.1,7.5-3.1,7.6-7.2c0.1-4.2-3-7.5-7.1-7.7c-4.3-0.2-7.7,3.1-7.7,7.4
		C281.8,209.3,285,212.6,289.1,212.7z"/>
	<path class="st0" d="M469.3,822.7c-28.3,0.5-55.7-3.9-81.6-15.7c-34.4-15.8-60.1-40.7-76.7-74.8c-0.7-1.5-1.4-3.1-1.9-4.7
		c-1.4-4.5,0.5-8.6,4.5-10.2c3.8-1.5,7.9,0.2,10,4.3c2.9,5.5,5.4,11.2,8.7,16.4c23.9,37.7,58.4,59.2,102.2,66.4
		c28.3,4.7,56.4,2.3,84.3-3.3c1.7-0.3,3.6-0.5,5.3-0.2c3.5,0.6,6,3.6,6.2,7c0.2,3.6-1.8,6.8-5.6,7.9c-4.3,1.2-8.8,2.2-13.2,2.8
		c-13.9,1.8-27.9,3.4-41.9,5C469.4,823.2,469.3,822.9,469.3,822.7z"/>
	<path class="st0" d="M516.1,93.6c4.9,0,8.3,2.6,8.9,6.6c0.6,4-1.8,7.8-6.3,8.9c-8,1.9-16.1,3.3-24,5.1c-43.9,10-87.1,22.6-128,41.7
		c-19.4,9-37.9,19.6-54.1,33.8c-3.9,3.4-8.3,3.5-11.4,0.7c-3.5-3.2-3.5-8.5,0.7-12.2c4.8-4.2,9.8-8.3,15-12
		c22.6-16.1,47.6-27.6,73.4-37.5c39.7-15.3,80.7-26.2,122.4-34.5C513.9,93.8,515.3,93.7,516.1,93.6z"/>
	<path class="st0" d="M636.2,407.4c-6.6,0.5-19,1.5-31.5,2.5c-1.2,0.1-2.3,0.2-3.5,0.3c-4.6,0.1-8-2.6-8.6-6.7
		c-0.6-4.1,2-7.7,6.5-8.7c3.2-0.7,6.4-1.1,9.7-1.4c41.9-3.9,83.2-2,122.9,13.5c16.9,6.6,32.2,15.9,45.2,28.7
		c0.9,0.9,1.8,1.8,2.5,2.8c2.3,3.3,2,7.5-0.6,10.1c-2.6,2.7-6.8,3-10.1,0.8c-0.6-0.4-1.2-0.9-1.7-1.4c-18.4-18.3-41.2-28.2-66-34.2
		C681.6,409.3,661.9,407.7,636.2,407.4z"/>
	<path class="st0" d="M797.1,460.7c0.1,4.2-3.1,7.5-7.2,7.6c-4.3,0.1-7.7-3.1-7.7-7.4c0-4.2,3.2-7.4,7.3-7.4
		C793.8,453.4,797.1,456.5,797.1,460.7z"/>
	<path class="st0" d="M550.6,810.3c-4.2,0-7.4-3.2-7.4-7.3c0-4.3,3.3-7.6,7.6-7.5c4.1,0.1,7.3,3.3,7.3,7.5
		C558,807.1,554.8,810.3,550.6,810.3z"/>
	<path class="st0" d="M289.1,212.7c-4.1-0.1-7.3-3.4-7.3-7.5c0-4.3,3.5-7.5,7.7-7.4c4.1,0.2,7.2,3.5,7.1,7.7
		C296.6,209.6,293.2,212.8,289.1,212.7z"/>
</g>
</svg>
